<svg xmlns="http://www.w3.org/2000/svg" version="1.1" width="512px" height="187px" style="shape-rendering:geometricPrecision; text-rendering:geometricPrecision; image-rendering:optimizeQuality; fill-rule:evenodd; clip-rule:evenodd" xmlns:xlink="http://www.w3.org/1999/xlink">
<g><path style="opacity:0.779" fill="#fefffe" d="M 275.5,11.5 C 276.376,11.3691 277.043,11.7025 277.5,12.5C 274.548,20.4051 271.048,28.0718 267,35.5C 265.168,39.7811 264.501,44.1144 265,48.5C 260.338,44.1783 258.672,38.845 260,32.5C 264.677,25.1491 269.844,18.1491 275.5,11.5 Z"/></g>
<g><path style="opacity:0.933" fill="#fefffe" d="M 298.5,17.5 C 299.376,17.3691 300.043,17.7025 300.5,18.5C 293.9,26.6333 290.9,35.9667 291.5,46.5C 291.48,53.3813 292.647,60.048 295,66.5C 296.18,62.7831 297.513,59.1165 299,55.5C 300.171,53.3843 301.671,52.7176 303.5,53.5C 302.87,56.9469 302.537,60.4469 302.5,64C 303.265,74.1881 304.265,84.3548 305.5,94.5C 304.919,111.917 296.252,123.084 279.5,128C 261.551,132.558 246.384,128.058 234,114.5C 228.337,105.525 226.671,95.858 229,85.5C 231.66,78.1765 234.327,70.8432 237,63.5C 241.263,52.5902 238.429,44.2568 228.5,38.5C 232.066,37.1492 235.399,37.6492 238.5,40C 246.405,45.0583 250.738,52.225 251.5,61.5C 250.587,67.5479 249.754,73.5479 249,79.5C 249.964,75.5315 252.131,72.3649 255.5,70C 256.332,69.3123 256.998,69.479 257.5,70.5C 250.649,81.0473 249.815,92.0473 255,103.5C 262.98,110.061 270.98,110.061 279,103.5C 281.979,97.6913 282.312,91.6913 280,85.5C 276.363,77.2551 273.529,68.7551 271.5,60C 274.332,41.8186 283.332,27.652 298.5,17.5 Z"/></g>
<g><path style="opacity:0.935" fill="#fefffe" d="M 22.5,41.5 C 29.5079,41.3337 36.5079,41.5004 43.5,42C 44.1258,42.7504 44.6258,43.5838 45,44.5C 45.3333,48.5 45.6667,52.5 46,56.5C 50.8258,46.861 58.6591,42.5276 69.5,43.5C 72.4206,43.5235 75.254,43.8568 78,44.5C 78.8123,51.7471 78.6456,58.9138 77.5,66C 75.4664,67.0056 73.2998,67.5056 71,67.5C 62.5217,66.6439 54.0217,66.3106 45.5,66.5C 45.9641,86.5675 45.4641,106.567 44,126.5C 36.5301,127.82 29.0301,127.82 21.5,126.5C 21.1667,112.5 20.8333,98.5 20.5,84.5C 20.5168,69.9454 21.1835,55.6121 22.5,41.5 Z"/></g>
<g><path style="opacity:0.946" fill="#fefffe" d="M 174.5,43.5 C 190.833,43.5 207.167,43.5 223.5,43.5C 223.943,46.812 224.276,50.1453 224.5,53.5C 225.521,58.81 223.521,62.1434 218.5,63.5C 206.951,62.1949 195.451,62.1949 184,63.5C 183.5,71.4931 183.334,79.4931 183.5,87.5C 193.506,87.3335 203.506,87.5002 213.5,88C 216.456,92.6647 216.122,96.9981 212.5,101C 202.839,101.5 193.172,101.666 183.5,101.5C 183.667,117.17 183.5,132.837 183,148.5C 177.333,149.167 171.667,149.833 166,150.5C 164.333,149.833 162.667,149.167 161,148.5C 159.929,138.037 159.429,127.537 159.5,117C 160.093,102.482 160.093,87.9816 159.5,73.5C 159.275,64.9871 161.108,56.9871 165,49.5C 167.843,46.8373 171.009,44.8373 174.5,43.5 Z"/></g>
<g><path style="opacity:0.942" fill="#fefffe" d="M 344.5,43.5 C 367.353,44.0167 380.019,55.6834 382.5,78.5C 379.954,102.546 366.621,113.712 342.5,112C 320.768,105.939 311.602,91.7726 315,69.5C 319.894,55.1493 329.727,46.4827 344.5,43.5 Z M 346.5,62.5 C 359.736,63.9357 364.903,71.269 362,84.5C 357.29,92.5168 350.457,95.0168 341.5,92C 333.944,87.1518 331.444,80.3184 334,71.5C 336.917,66.6369 341.083,63.6369 346.5,62.5 Z"/></g>
<g><path style="opacity:0.955" fill="#fefffe" d="M 448.5,44.5 C 473.598,42.9602 489.431,54.2936 496,78.5C 498.463,100.749 489.63,116.582 469.5,126C 441.783,132.395 423.283,122.228 414,95.5C 411.108,68.5854 422.608,51.5854 448.5,44.5 Z M 450.5,67.5 C 468.909,67.4182 476.076,76.4182 472,94.5C 468.403,101.575 462.57,105.242 454.5,105.5C 442.792,104.291 436.792,97.7909 436.5,86C 436.844,76.4972 441.511,70.3306 450.5,67.5 Z"/></g>
<g><path style="opacity:0.943" fill="#fefffe" d="M 110.5,45.5 C 135.065,43.9262 151.065,54.7595 158.5,78C 142.96,89.1976 127.126,100.031 111,110.5C 113.701,116.238 117.701,121.238 123,125.5C 123.483,126.448 123.649,127.448 123.5,128.5C 115.057,128.938 106.723,128.438 98.5,127C 90.413,119.322 83.913,110.489 79,100.5C 73.5029,72.8119 84.0029,54.4785 110.5,45.5 Z M 115.5,63.5 C 120.289,63.6243 124.955,64.4577 129.5,66C 131.976,67.3088 133.976,69.1421 135.5,71.5C 122.833,79.8333 110.167,88.1667 97.5,96.5C 93.2511,84.6527 95.9178,74.8194 105.5,67C 108.85,65.5137 112.184,64.347 115.5,63.5 Z"/></g>
<g><path style="opacity:0.87" fill="#fefffe" d="M 389.5,45.5 C 394.833,45.5 400.167,45.5 405.5,45.5C 405.803,50.43 405.469,55.2633 404.5,60C 395.84,60.4998 387.173,60.6664 378.5,60.5C 379.029,53.0786 382.695,48.0786 389.5,45.5 Z"/></g>
<g><path style="opacity:0.925" fill="#fefffe" d="M 389.5,64.5 C 394.179,64.3342 398.845,64.5008 403.5,65C 404.766,65.3095 405.933,65.8095 407,66.5C 408.975,86.4992 408.975,106.499 407,126.5C 403.564,127.286 400.064,127.953 396.5,128.5C 392.882,127.654 389.215,127.32 385.5,127.5C 384.167,106.833 384.167,86.1667 385.5,65.5C 387.099,65.7678 388.432,65.4345 389.5,64.5 Z"/></g>
<g><path style="opacity:0.919" fill="#fefffe" d="M 322.5,105.5 C 324.822,107.586 326.822,110.086 328.5,113C 330.087,113.862 331.754,114.529 333.5,115C 344.5,115.333 355.5,115.667 366.5,116C 380.263,120.37 384.097,129.203 378,142.5C 369.158,151.44 359.991,151.773 350.5,143.5C 353.518,141.738 356.018,139.404 358,136.5C 358.439,131.929 356.272,129.429 351.5,129C 342.912,129.035 334.579,127.701 326.5,125C 322.952,119.056 321.618,112.556 322.5,105.5 Z"/></g>
<g><path style="opacity:0.572" fill="#fefffe" d="M 396.5,157.5 C 402.401,157.94 402.734,159.273 397.5,161.5C 398.325,162.386 399.325,162.719 400.5,162.5C 400.5,163.5 400.5,164.5 400.5,165.5C 399.5,165.5 398.5,165.5 397.5,165.5C 397.5,168.833 397.5,172.167 397.5,175.5C 396.5,175.5 395.5,175.5 394.5,175.5C 394.923,171.449 394.256,167.616 392.5,164C 393.932,161.833 395.265,159.667 396.5,157.5 Z"/></g>
<g><path style="opacity:0.586" fill="#fefffe" d="M 461.5,157.5 C 462.5,157.5 463.5,157.5 464.5,157.5C 464.5,163.5 464.5,169.5 464.5,175.5C 463.5,175.5 462.5,175.5 461.5,175.5C 461.5,169.5 461.5,163.5 461.5,157.5 Z"/></g>
<g><path style="opacity:0.618" fill="#fefffe" d="M 370.5,158.5 C 371.5,158.5 372.5,158.5 373.5,158.5C 373.5,163.167 373.5,167.833 373.5,172.5C 375.604,172.201 377.604,172.534 379.5,173.5C 379.333,173.833 379.167,174.167 379,174.5C 376.281,175.444 373.448,175.777 370.5,175.5C 370.5,169.833 370.5,164.167 370.5,158.5 Z"/></g>
<g><path style="opacity:0.57" fill="#fefffe" d="M 385.5,158.5 C 386.5,158.5 387.5,158.5 388.5,158.5C 388.5,159.5 388.5,160.5 388.5,161.5C 387.5,161.5 386.5,161.5 385.5,161.5C 385.5,160.5 385.5,159.5 385.5,158.5 Z"/></g>
<g><path style="opacity:0.59" fill="#fefffe" d="M 435.5,159.5 C 437.048,159.821 437.715,160.821 437.5,162.5C 438.5,162.5 439.5,162.5 440.5,162.5C 440.5,163.5 440.5,164.5 440.5,165.5C 439.5,165.5 438.5,165.5 437.5,165.5C 437.5,167.833 437.5,170.167 437.5,172.5C 442.39,171.289 442.723,172.289 438.5,175.5C 436.971,175.471 435.804,174.804 435,173.5C 434.866,170.128 434.032,166.961 432.5,164C 433.729,162.614 434.729,161.114 435.5,159.5 Z"/></g>
<g><path style="opacity:0.585" fill="#fefffe" d="M 385.5,162.5 C 386.5,162.5 387.5,162.5 388.5,162.5C 388.5,166.833 388.5,171.167 388.5,175.5C 387.5,175.5 386.5,175.5 385.5,175.5C 385.5,171.167 385.5,166.833 385.5,162.5 Z"/></g>
<g><path style="opacity:0.64" fill="#fefffe" d="M 408.5,162.5 C 413.5,162.167 415.833,164.5 415.5,169.5C 412.813,169.336 410.146,169.503 407.5,170C 409.564,172.575 412.064,173.075 415,171.5C 415.424,174.328 414.09,175.661 411,175.5C 404.761,174.019 403.095,170.352 406,164.5C 406.995,163.934 407.828,163.267 408.5,162.5 Z M 408.5,165.5 C 409.978,165.238 411.311,165.571 412.5,166.5C 410.926,167.631 409.259,167.798 407.5,167C 408.056,166.617 408.389,166.117 408.5,165.5 Z"/></g>
<g><path style="opacity:0.587" fill="#fefffe" d="M 423.5,162.5 C 426.278,162.022 428.278,163.022 429.5,165.5C 427.761,165.594 425.761,165.761 423.5,166C 425.001,167.252 426.668,168.252 428.5,169C 430.382,172.976 429.048,175.142 424.5,175.5C 421.422,175.376 420.422,174.043 421.5,171.5C 427.981,172.434 428.147,171.434 422,168.5C 421.257,166.126 421.757,164.126 423.5,162.5 Z"/></g>
<g><path style="opacity:0.633" fill="#fefffe" d="M 445.5,162.5 C 446.675,162.281 447.675,162.614 448.5,163.5C 450.564,172.537 452.23,172.204 453.5,162.5C 454.5,162.5 455.5,162.5 456.5,162.5C 455.032,168.237 453.365,173.903 451.5,179.5C 450.5,179.5 449.5,179.5 448.5,179.5C 448.519,177.94 448.852,176.44 449.5,175C 448.056,170.835 446.722,166.668 445.5,162.5 Z"/></g>
<g><path style="opacity:0.64" fill="#fefffe" d="M 474.5,162.5 C 479.5,162.167 481.833,164.5 481.5,169.5C 478.813,169.336 476.146,169.503 473.5,170C 475.335,172.629 477.669,173.129 480.5,171.5C 481.529,174.308 480.362,175.642 477,175.5C 471.123,173.899 469.457,170.232 472,164.5C 472.995,163.934 473.828,163.267 474.5,162.5 Z M 474.5,165.5 C 475.978,165.238 477.311,165.571 478.5,166.5C 476.926,167.631 475.259,167.798 473.5,167C 474.056,166.617 474.389,166.117 474.5,165.5 Z"/></g>
</svg>