<svg xmlns="http://www.w3.org/2000/svg" version="1.1" width="1344px" height="2035px" style="shape-rendering:geometricPrecision; text-rendering:geometricPrecision; image-rendering:optimizeQuality; fill-rule:evenodd; clip-rule:evenodd" xmlns:xlink="http://www.w3.org/1999/xlink">
<g><path style="opacity:1" fill="#fefffe" d="M 844.5,-0.5 C 844.833,-0.5 845.167,-0.5 845.5,-0.5C 842.963,25.3493 837.797,50.6826 830,75.5C 806.728,149.65 777.395,221.317 742,290.5C 716.333,334.5 690.667,378.5 665,422.5C 635.471,479.198 625.471,539.198 635,602.5C 637.654,620.418 640.488,638.085 643.5,655.5C 603.908,596.626 579.075,531.959 569,461.5C 559.149,388.077 578.483,323.744 627,268.5C 690.875,202.987 749.875,133.653 804,60.5C 818.007,40.4817 831.507,20.1483 844.5,-0.5 Z"/></g>
<g><path style="opacity:1" fill="#fefffe" d="M 1343.5,1417.5 C 1343.5,1440.83 1343.5,1464.17 1343.5,1487.5C 1331.36,1618.52 1280.19,1731.52 1190,1826.5C 1082.16,1935.34 951.996,2001.84 799.5,2026C 774.452,2029.76 749.452,2032.6 724.5,2034.5C 695.5,2034.5 666.5,2034.5 637.5,2034.5C 497.534,2026.24 370.534,1981.74 256.5,1901C 167.424,1836.26 100.924,1753.43 57,1652.5C 15.9245,1550.13 6.25788,1444.8 28,1336.5C 48.5841,1229.08 80.2508,1125.08 123,1024.5C 140.178,984.477 158.178,944.81 177,905.5C 234.548,769.465 214.881,646.132 118,535.5C 83.5699,497.241 44.0699,465.574 -0.5,440.5C -0.5,440.167 -0.5,439.833 -0.5,439.5C 88.8625,458.208 170.196,494.374 243.5,548C 358.144,635.82 411.978,752.32 405,897.5C 403.384,926.098 399.717,954.432 394,982.5C 381.989,1020.2 370.989,1058.2 361,1096.5C 345.206,1157.85 337.539,1220.19 338,1283.5C 338.32,1310.09 342.32,1336.09 350,1361.5C 350.2,1294.97 361.2,1230.3 383,1167.5C 399.89,1120.52 425.723,1079.35 460.5,1044C 476.396,1028.72 494.063,1015.89 513.5,1005.5C 471.155,1062.14 441.655,1125.47 425,1195.5C 405.557,1279.34 400.89,1364 411,1449.5C 418.892,1546.5 466.392,1616.33 553.5,1659C 633.786,1694.89 714.786,1696.55 796.5,1664C 861.779,1636.39 907.946,1589.89 935,1524.5C 945.407,1496.39 949.407,1467.39 947,1437.5C 942.86,1385.13 933.193,1333.8 918,1283.5C 893.768,1202.8 862.101,1125.14 823,1050.5C 789.92,976.69 776.253,899.357 782,818.5C 788.863,723.253 812.863,632.586 854,546.5C 922.892,404.291 1019.72,284.457 1144.5,187C 1190.02,151.644 1238.18,120.144 1289,92.5C 1222.18,154.787 1172.51,229.121 1140,315.5C 1105.39,410.787 1090.05,509.12 1094,610.5C 1098.48,714.557 1116.48,816.224 1148,915.5C 1160.28,954.685 1173.95,993.352 1189,1031.5C 1186.48,963.35 1196.14,897.016 1218,832.5C 1237.02,778.894 1268.86,734.727 1313.5,700C 1314.76,699.018 1316.09,698.685 1317.5,699C 1308.27,708.613 1301.44,719.78 1297,732.5C 1284.34,770.797 1277.34,810.13 1276,850.5C 1273.47,915.665 1275.8,980.665 1283,1045.5C 1293.96,1149.6 1311.29,1252.6 1335,1354.5C 1338.74,1375.53 1341.58,1396.53 1343.5,1417.5 Z"/></g>
</svg>
