<svg xmlns="http://www.w3.org/2000/svg" version="1.1" width="2725px" height="994px" style="shape-rendering:geometricPrecision; text-rendering:geometricPrecision; image-rendering:optimizeQuality; fill-rule:evenodd; clip-rule:evenodd" xmlns:xlink="http://www.w3.org/1999/xlink">
<g><path style="opacity:0.948" fill="#000000" d="M 1470.5,64.5 C 1470.78,78.4434 1468.28,92.1101 1463,105.5C 1458.55,116.408 1453.55,127.074 1448,137.5C 1434.27,159.299 1422.93,182.299 1414,206.5C 1410.02,222.648 1408.18,238.981 1408.5,255.5C 1398.16,245.708 1391.66,233.708 1389,219.5C 1382.9,194.504 1386.57,171.17 1400,149.5C 1423.71,121.293 1447.21,92.96 1470.5,64.5 Z"/></g>
<g><path style="opacity:0.986" fill="#000000" d="M 1594.5,98.5 C 1595.68,98.281 1596.68,98.6143 1597.5,99.5C 1588.92,114.333 1580.08,128.999 1571,143.5C 1559.01,168.796 1552.34,195.463 1551,223.5C 1547.45,268.656 1553.78,312.323 1570,354.5C 1571.93,358.759 1574.27,362.759 1577,366.5C 1578.61,345.76 1583.28,325.76 1591,306.5C 1595.49,296.513 1602.32,288.513 1611.5,282.5C 1611.83,283.333 1612.17,284.167 1612.5,285C 1608.75,309.697 1607.58,334.53 1609,359.5C 1612.92,397.588 1617.58,435.588 1623,473.5C 1634.69,564.967 1599.19,630.467 1516.5,670C 1450.28,695.781 1384.61,694.448 1319.5,666C 1246.93,629.337 1213.1,570.17 1218,488.5C 1220.01,466.143 1225.01,444.476 1233,423.5C 1245.44,394.611 1256.78,365.277 1267,335.5C 1274.36,313.977 1276.36,291.977 1273,269.5C 1268.31,249.621 1258.14,233.121 1242.5,220C 1235.18,214.338 1227.51,209.171 1219.5,204.5C 1219.98,203.522 1220.64,202.689 1221.5,202C 1236.68,200.962 1250.68,204.629 1263.5,213C 1293.68,230.509 1316.18,255.009 1331,286.5C 1338.77,309.493 1340.1,332.826 1335,356.5C 1330.17,378.134 1325.51,399.801 1321,421.5C 1318.9,433.091 1318.23,444.758 1319,456.5C 1324.08,438.188 1330.08,420.188 1337,402.5C 1344,390.167 1353.67,380.5 1366,373.5C 1365.98,376.57 1365.32,379.57 1364,382.5C 1356.78,398.271 1350.11,414.271 1344,430.5C 1335.01,462.948 1335.34,495.281 1345,527.5C 1360.4,565.968 1388.9,583.135 1430.5,579C 1487.51,570.29 1510.68,537.457 1500,480.5C 1497.8,470.043 1495.14,459.71 1492,449.5C 1482.78,424.513 1472.78,399.846 1462,375.5C 1448.35,340.459 1447.35,305.125 1459,269.5C 1471.1,231.958 1489.43,197.958 1514,167.5C 1532.28,144.215 1553.45,124.048 1577.5,107C 1583.26,104.121 1588.93,101.287 1594.5,98.5 Z"/></g>
<g><path style="opacity:0.989" fill="#000000" d="M 140.5,222.5 C 167.832,222.988 195.165,223.488 222.5,224C 232.203,224.703 237.703,229.87 239,239.5C 240.225,265.812 240.892,292.145 241,318.5C 252.559,286.279 273.392,262.112 303.5,246C 319.764,239.018 336.764,235.351 354.5,235C 371.167,234.333 387.833,234.333 404.5,235C 412.297,236.13 416.797,240.63 418,248.5C 418.988,256.131 419.488,263.798 419.5,271.5C 418.867,293.163 418.367,314.83 418,336.5C 418.083,347.211 412.916,353.377 402.5,355C 366.493,355.257 330.493,354.757 294.5,353.5C 276.498,353.833 258.498,354.167 240.5,354.5C 239.804,455.831 239.304,557.165 239,658.5C 239.343,667.324 235.509,673.49 227.5,677C 220.188,678.032 212.855,678.865 205.5,679.5C 182.857,678.687 160.191,678.187 137.5,678C 133.833,677.667 130.167,677.333 126.5,677C 121.124,676.624 117.958,673.79 117,668.5C 116.333,523.833 116.333,379.167 117,234.5C 117.939,227.931 121.773,224.431 128.5,224C 132.688,223.824 136.688,223.324 140.5,222.5 Z"/></g>
<g><path style="opacity:0.99" fill="#000000" d="M 1006.5,233.5 C 1048.83,233.333 1091.17,233.5 1133.5,234C 1149.51,234.366 1165.51,235.033 1181.5,236C 1183.58,236.192 1185.58,236.692 1187.5,237.5C 1190.26,247.296 1191.76,257.296 1192,267.5C 1192.82,284.525 1192.48,301.525 1191,318.5C 1188.95,327.883 1183.12,333.049 1173.5,334C 1130.68,332.915 1087.85,332.082 1045,331.5C 1022.43,331.153 999.931,332.153 977.5,334.5C 977.5,379.167 977.5,423.833 977.5,468.5C 1030.21,468.932 1082.87,470.098 1135.5,472C 1138.67,473.167 1140.83,475.333 1142,478.5C 1145.57,492.707 1146.24,507.04 1144,521.5C 1140.93,531.634 1134.1,537.468 1123.5,539C 1116.54,539.96 1109.54,540.46 1102.5,540.5C 1061.19,537.727 1019.86,537.061 978.5,538.5C 977.646,615.67 977.646,692.837 978.5,770C 978.566,775.898 978.066,781.731 977,787.5C 975.833,790 974,791.833 971.5,793C 964.994,794.963 958.327,795.963 951.5,796C 925.5,796.667 899.5,796.667 873.5,796C 868.699,795.016 864.532,792.85 861,789.5C 858.388,783.108 857.055,776.441 857,769.5C 855.989,755.184 855.322,740.85 855,726.5C 854.258,636.994 854.758,547.494 856.5,458C 855.184,419.486 855.35,380.986 857,342.5C 858.194,323.864 862.194,305.864 869,288.5C 882.495,259.145 905.328,241.978 937.5,237C 942.47,236.114 947.47,235.448 952.5,235C 970.671,234.832 988.671,234.332 1006.5,233.5 Z"/></g>
<g><path style="opacity:0.989" fill="#000000" d="M 1837.5,237.5 C 1897.67,231.603 1948.17,250.603 1989,294.5C 2028.93,346.801 2041.26,405.135 2026,469.5C 2009.27,529.892 1971.11,569.725 1911.5,589C 1835.78,609.033 1770.95,590.867 1717,534.5C 1676.05,484.098 1664.38,427.431 1682,364.5C 1702.26,303.906 1742.76,263.739 1803.5,244C 1814.84,241.098 1826.17,238.931 1837.5,237.5 Z M 1847.5,333.5 C 1897.06,331.885 1926.23,355.551 1935,404.5C 1939.12,434.917 1930.28,460.75 1908.5,482C 1880.24,502.319 1849.91,505.985 1817.5,493C 1785.17,473.84 1770,445.34 1772,407.5C 1775.78,372.111 1794.61,348.944 1828.5,338C 1834.95,336.415 1841.28,334.915 1847.5,333.5 Z"/></g>
<g><path style="opacity:0.991" fill="#000000" d="M 2403.5,240.5 C 2496.32,235.817 2566.82,272.817 2615,351.5C 2647.23,412.978 2651.23,476.311 2627,541.5C 2593.87,620.954 2534.71,667.12 2449.5,680C 2364.29,687.628 2295.79,657.795 2244,590.5C 2199.67,524.832 2190.67,454.499 2217,379.5C 2253.09,298.253 2315.26,251.919 2403.5,240.5 Z M 2413.5,357.5 C 2468.21,354.598 2503.71,379.265 2520,431.5C 2529.37,466.285 2523.71,498.285 2503,527.5C 2477.13,554.908 2445.29,566.741 2407.5,563C 2364.04,554.881 2336.54,529.381 2325,486.5C 2315.3,445.123 2325.8,409.957 2356.5,381C 2373.49,368.169 2392.49,360.336 2413.5,357.5 Z"/></g>
<g><path style="opacity:0.98" fill="#000000" d="M 2101.5,244.5 C 2119.16,244.905 2136.83,245.238 2154.5,245.5C 2154.5,270.833 2154.5,296.167 2154.5,321.5C 2109.84,320.754 2065.17,320.421 2020.5,320.5C 2021.8,279.696 2042.47,255.196 2082.5,247C 2088.98,246.138 2095.31,245.305 2101.5,244.5 Z"/></g>
<g><path style="opacity:0.988" fill="#000000" d="M 621.5,245.5 C 706.133,245.721 771.3,281.054 817,351.5C 827.399,368.302 835.065,386.302 840,405.5C 841.218,410.455 841.551,415.455 841,420.5C 756.091,477.705 670.925,534.539 585.5,591C 589.881,599.587 595.381,607.42 602,614.5C 619.402,631.899 636.069,649.899 652,668.5C 654.361,671.888 656.194,675.554 657.5,679.5C 654.553,680.321 651.553,680.821 648.5,681C 613.488,681.428 578.488,681.761 543.5,682C 536.92,681.209 531.253,678.543 526.5,674C 511.036,656.201 495.203,638.701 479,621.5C 416.02,554.623 398.687,477.29 427,389.5C 455.827,315.67 508.66,269.17 585.5,250C 597.57,247.825 609.57,246.325 621.5,245.5 Z M 618.5,338.5 C 641.54,336.838 663.873,340.005 685.5,348C 703.869,354.705 717.535,366.705 726.5,384C 715.51,389.493 704.843,395.493 694.5,402C 648.5,433.333 602.5,464.667 556.5,496C 544.085,503.908 531.085,510.742 517.5,516.5C 505.999,481.181 505.832,445.847 517,410.5C 530.636,377.53 554.47,355.697 588.5,345C 598.482,342.106 608.482,339.939 618.5,338.5 Z"/></g>
<g><path style="opacity:0.988" fill="#000000" d="M 2111.5,346.5 C 2126.33,346.538 2141,348.038 2155.5,351C 2161.29,351.788 2164.79,354.954 2166,360.5C 2168.37,380.092 2169.7,399.758 2170,419.5C 2171.97,482.5 2171.97,545.5 2170,608.5C 2169.74,630.241 2168.4,651.908 2166,673.5C 2159.46,676.12 2152.63,677.62 2145.5,678C 2115.73,680.481 2086.06,679.647 2056.5,675.5C 2055.12,663.216 2054.29,650.882 2054,638.5C 2052.01,556.834 2052.01,475.167 2054,393.5C 2054.31,379.792 2055.14,366.125 2056.5,352.5C 2074.84,349.234 2093.17,347.234 2111.5,346.5 Z"/></g>
<g><path style="opacity:0.983" fill="#000000" d="M 1721.5,562.5 C 1722.38,562.369 1723.04,562.702 1723.5,563.5C 1729.58,575.331 1736.41,586.665 1744,597.5C 1754.04,609.436 1766.87,615.936 1782.5,617C 1793.18,617.262 1803.85,617.762 1814.5,618.5C 1834.15,617.858 1853.82,617.524 1873.5,617.5C 1895.52,617.4 1917.52,617.9 1939.5,619C 2005.27,627.757 2033.43,664.923 2024,730.5C 2010.52,772.347 1981.69,794.013 1937.5,795.5C 1909.63,795.397 1887.3,784.397 1870.5,762.5C 1878.64,757.26 1886.64,751.76 1894.5,746C 1916,727.659 1915.67,709.992 1893.5,693C 1879.16,685.461 1863.82,681.461 1847.5,681C 1823.79,680.332 1800.12,678.999 1776.5,677C 1745.34,674.166 1727.5,657.333 1723,626.5C 1721.61,605.197 1721.11,583.863 1721.5,562.5 Z"/></g>
<g><path style="opacity:0.906" fill="#000000" d="M 2116.5,841.5 C 2121.6,841.175 2126.6,841.675 2131.5,843C 2133.34,845.826 2134.01,848.993 2133.5,852.5C 2128.85,851.705 2124.18,851.539 2119.5,852C 2117.4,854.042 2116.23,856.542 2116,859.5C 2115.5,862.817 2115.33,866.15 2115.5,869.5C 2120.21,869.173 2124.88,869.507 2129.5,870.5C 2131.06,873.614 2130.73,876.447 2128.5,879C 2124.18,879.499 2119.85,879.666 2115.5,879.5C 2115.67,896.17 2115.5,912.837 2115,929.5C 2111.67,930.833 2108.33,930.833 2105,929.5C 2104.5,912.837 2104.33,896.17 2104.5,879.5C 2095.34,881.849 2092.34,878.682 2095.5,870C 2098.48,869.502 2101.48,869.335 2104.5,869.5C 2104.2,863.423 2104.7,857.423 2106,851.5C 2108.11,846.557 2111.61,843.224 2116.5,841.5 Z"/></g>
<g><path style="opacity:0.936" fill="#000000" d="M 2464.5,841.5 C 2467.21,841.575 2469.87,841.908 2472.5,842.5C 2472.67,871.502 2472.5,900.502 2472,929.5C 2468.87,930.799 2465.7,930.799 2462.5,929.5C 2461.5,900.508 2461.17,871.508 2461.5,842.5C 2462.79,842.737 2463.79,842.404 2464.5,841.5 Z"/></g>
<g><path style="opacity:0.855" fill="#000000" d="M 2055.5,846.5 C 2059.11,846.211 2062.61,846.544 2066,847.5C 2068.74,858.761 2064.74,862.094 2054,857.5C 2053.01,853.525 2053.51,849.859 2055.5,846.5 Z"/></g>
<g><path style="opacity:0.881" fill="#000000" d="M 1975.5,847.5 C 1978.58,847.26 1981.58,847.593 1984.5,848.5C 1985.5,872.157 1985.83,895.824 1985.5,919.5C 1995.75,919.181 2005.92,919.514 2016,920.5C 2016.17,922 2016.33,923.5 2016.5,925C 2016.37,926.981 2015.7,928.647 2014.5,930C 2002.17,930.667 1989.83,930.667 1977.5,930C 1976.07,929.535 1974.9,928.701 1974,927.5C 1973.83,914.333 1973.67,901.167 1973.5,888C 1973.52,874.278 1974.18,860.778 1975.5,847.5 Z"/></g>
<g><path style="opacity:0.914" fill="#000000" d="M 2318.5,854.5 C 2322.11,854.211 2325.61,854.544 2329,855.5C 2329.5,860.155 2329.67,864.821 2329.5,869.5C 2334.51,869.334 2339.51,869.501 2344.5,870C 2345.83,873 2345.83,876 2344.5,879C 2339.51,879.499 2334.51,879.666 2329.5,879.5C 2329.06,892.574 2329.56,905.574 2331,918.5C 2332.68,920.066 2334.68,921.066 2337,921.5C 2339.72,920.313 2342.56,919.647 2345.5,919.5C 2345.66,922.518 2345.5,925.518 2345,928.5C 2336.38,932.62 2328.38,931.62 2321,925.5C 2320.14,923.913 2319.47,922.246 2319,920.5C 2318.5,906.837 2318.33,893.171 2318.5,879.5C 2309.34,881.849 2306.34,878.682 2309.5,870C 2312.48,869.502 2315.48,869.335 2318.5,869.5C 2318.5,864.5 2318.5,859.5 2318.5,854.5 Z"/></g>
<g><path style="opacity:0.879" fill="#000000" d="M 2179.5,868.5 C 2203.95,867.108 2213.95,878.274 2209.5,902C 2196.5,902.5 2183.5,902.667 2170.5,902.5C 2171.5,918.314 2179.83,924.481 2195.5,921C 2199.84,919.718 2204.17,918.551 2208.5,917.5C 2210.15,920.895 2209.81,924.061 2207.5,927C 2171.58,938.645 2155.75,925.812 2160,888.5C 2162.72,877.951 2169.22,871.284 2179.5,868.5 Z M 2181.5,877.5 C 2192.84,876.172 2199.17,881.172 2200.5,892.5C 2190.52,893.499 2180.52,893.832 2170.5,893.5C 2171.22,886.035 2174.89,880.702 2181.5,877.5 Z"/></g>
<g><path style="opacity:0.88" fill="#000000" d="M 2259.5,868.5 C 2266.88,867.689 2273.88,868.856 2280.5,872C 2283.33,875.42 2283.17,878.587 2280,881.5C 2274.61,878.05 2268.78,876.884 2262.5,878C 2254.97,882.038 2254.63,886.705 2261.5,892C 2268.97,894.32 2275.81,897.82 2282,902.5C 2288.53,920.742 2282.03,930.409 2262.5,931.5C 2256.53,931.074 2250.87,929.574 2245.5,927C 2244.54,923.606 2244.21,920.106 2244.5,916.5C 2248.53,917.673 2252.53,919.173 2256.5,921C 2260.17,921.667 2263.83,921.667 2267.5,921C 2274.57,917.274 2275.23,912.608 2269.5,907C 2262.14,904.441 2255.3,900.941 2249,896.5C 2242.37,883.225 2245.87,873.891 2259.5,868.5 Z"/></g>
<g><path style="opacity:0.879" fill="#000000" d="M 2530.5,868.5 C 2554.95,867.108 2564.95,878.274 2560.5,902C 2547.5,902.5 2534.5,902.667 2521.5,902.5C 2522.5,918.314 2530.83,924.481 2546.5,921C 2550.84,919.718 2555.17,918.551 2559.5,917.5C 2561.15,920.895 2560.81,924.061 2558.5,927C 2522.58,938.645 2506.75,925.812 2511,888.5C 2513.72,877.951 2520.22,871.284 2530.5,868.5 Z M 2532.5,877.5 C 2543.84,876.172 2550.17,881.172 2551.5,892.5C 2541.52,893.499 2531.52,893.832 2521.5,893.5C 2522.22,886.035 2525.89,880.702 2532.5,877.5 Z"/></g>
<g><path style="opacity:0.934" fill="#000000" d="M 2055.5,869.5 C 2058.83,869.5 2062.17,869.5 2065.5,869.5C 2065.67,889.503 2065.5,909.503 2065,929.5C 2061.87,930.799 2058.7,930.799 2055.5,929.5C 2054.18,909.435 2054.18,889.435 2055.5,869.5 Z"/></g>
<g><path style="opacity:0.894" fill="#000000" d="M 2375.5,869.5 C 2379.44,869.207 2383.27,869.54 2387,870.5C 2392.53,885.424 2397.86,900.424 2403,915.5C 2408.27,900.537 2413.43,885.537 2418.5,870.5C 2422.11,869.511 2425.77,869.177 2429.5,869.5C 2429.65,872.607 2429.15,875.607 2428,878.5C 2419.24,903.179 2410.07,927.679 2400.5,952C 2396.85,952.499 2393.18,952.665 2389.5,952.5C 2391.16,944.675 2393.83,937.175 2397.5,930C 2396.3,929.097 2395.47,927.931 2395,926.5C 2389.86,912.089 2384.53,897.756 2379,883.5C 2377.11,878.993 2375.94,874.327 2375.5,869.5 Z"/></g>
</svg>